#!OML:ASF E:/inclinewalkrobotboard/Project1/Captureday1/Session1/subject1.ASF
:FULLY-SPECIFIED
:DEGREES
101
root 0 0 0 -4.775340905829459 -18.10166833601767 3.7547077156682125
lowerback 6.536872646682703 1.1980510644651665 -0.27422845972796517
upperback 2.6475597234695134 1.5883707647057341 -1.2482825591326796
thorax -0.8341515282800476 0.7639214097493279 -1.2583652751171646
lowerneck -3.972711223683037 3.517933837012069 -3.4024630704007466
upperneck 16.190989091507475 4.786835254704103 -0.6312400920182046
head 5.465279442334187 2.2000033374692514 0.7376677219839447
rclavicle -4.069278231448637E-16 6.83565785760522E-16
rhumerus 20.364019751199212 19.859955379631472 -68.17096735725065
rradius 98.0456790433577
rwrist -14.96277179288239
rhand -39.131990744408846 -19.448318791899446
rfingers 7.125019999999962
rthumb -12.087779665985346 -48.984997576073056
lclavicle -3.0373132151284737E-15 5.629326833290147E-16
lhumerus -30.46813890136709 -9.11537630626951 84.755986614605
lradius 26.794821896420885
lwrist -31.034232995900794
lhand -2.296530288992619 19.72104942316442
lfingers 7.082096669843125
lthumb 23.127018197350644 60.55964848326594
rfemur -10.41242680858439 15.421575853444729 16.405069888012576
rtibia 29.52661870403444
rfoot -19.489751976848368 -12.230300416704853
rtoes -7.02897341836216
lfemur -24.521517947973553 -1.7564324071007456 -10.1522087145782
ltibia 48.16836797067346
lfoot -5.343465068122472 0.8672954247268772
ltoes -7.960021980486859
102
root 0 0 0 -4.727413959425135 -18.14922317205198 3.7553154473748855
lowerback 6.594345704632226 1.2090125612368523 -0.2664973234867414
upperback 2.67007799877202 1.6010424856904037 -1.2520572226017492
thorax -0.842522967888051 0.7701628424313959 -1.2686484624808705
lowerneck -3.9473567020027645 3.5071855882517657 -3.404449634395376
upperneck 16.106248748400393 4.775608247924401 -0.6122311166968863
head 5.4361444374534855 2.1940135355184793 0.7442497642518542
rclavicle -4.34100673728E-16 6.873677311561419E-16
rhumerus 20.463912690959887 19.580371777861238 -68.0395151262214
rradius 97.7386871437408
rwrist -14.722368542665226
rhand -39.07100204415431 -19.296387986857514
rfingers 7.125019999999962
rthumb -12.029006650291583 -48.83607039309008
lclavicle -3.0780461256779162E-15 5.758898959822965E-16
lhumerus -30.861581478449324 -9.390825488785394 85.07596767653548
lradius 26.779763150519507
lwrist -31.23729099091532
lhand -2.11087547136861 19.69883722157754
lfingers 7.082009964819203
lthumb 23.307069055524426 60.59385042252189
rfemur -10.529193697385761 15.419608326600397 16.335720848072366
rtibia 29.577794292298563
rfoot -19.486698782524567 -12.24194409096264
rtoes -7.073683242437672
lfemur -24.611028570207985 -1.6912563430708092 -10.142988747477569
ltibia 48.332495938451004
lfoot -5.362333294440331 0.8439591729501119
ltoes -7.995773657953253
103
root 0 0 0 -4.660229854896125 -18.224171248180852 3.754071051123177
lowerback 6.674453285224979 1.223367640562476 -0.2481137240221698
upperback 2.6969251114007484 1.6184008309172078 -1.253894499011393
thorax -0.859039281727787 0.7786915108089651 -1.2835554168494991
lowerneck -3.9322778865596058 3.4970958477685277 -3.399220999580725
upperneck 15.979774278541456 4.768402215852182 -0.6005937771675791
head 5.395422739883126 2.189641063086076 0.74757497736117
rclavicle -4.782688080422334E-16 6.963332260747439E-16
rhumerus 20.6535348510709 19.131981173571805 -67.8206132388292
rradius 97.3139051006164
rwrist -14.382379565438505
rhand -39.00237038483828 -19.08085876270702
rfingers 7.125019999999963
rthumb -11.962885567329268 -48.624676193382825
lclavicle -3.1031580018431736E-15 5.851805385235138E-16
lhumerus -31.182096215279355 -9.616641981925408 85.33666686802682
lradius 26.76913485603857
lwrist -31.398077455973315
lhand -1.96099409199482 19.681246471680367
lfingers 7.0819395127902
lthumb 23.452380111516106 60.61851340701745
rfemur -10.50868389685688 15.466728742463825 16.32333752972562
rtibia 29.480873516480308
rfoot -19.530776792934915 -12.266248510460164
rtoes -7.104332441733096
lfemur -24.76755984152316 -1.5864400614766612 -10.127964683737934
ltibia 48.61957519709047
lfoot -5.3689571966970595 0.7767875907338269
ltoes -8.059680985414191
104
root 0 0 0 -4.625717109278723 -18.26747508759531 3.7544830584467754
lowerback 6.716899666426924 1.231310352710702 -0.24066700818170483
upperback 2.712579898019902 1.6277526775464757 -1.255917475268665
thorax -0.8662106715823272 0.7832885824270257 -1.291318937120627
lowerneck -3.9176071624437863 3.4892502901133944 -3.3994223305436013
upperneck 15.913662989434489 4.760560713034142 -0.587926964543934
head 5.37333421294192 2.185475785663134 0.751726690918372
rclavicle -5.042014635147945E-16 6.997584285921771E-16
rhumerus 20.796722945074308 18.82425741760843 -67.66627747010013
rradius 97.03786563059998
rwrist -14.15818115316933
rhand -38.96229818094659 -18.94025828590477
rfingers 7.125019999999963
rthumb -11.924575146443116 -48.48718103501906
lclavicle -3.1276266700781214E-15 5.932092213378337E-16
lhumerus -31.229677905053965 -9.695687323656518 85.39521051250664
lradius 26.84526743676531
lwrist -31.378251584157084
lhand -1.9364807214411162 19.695126883822866
lfingers 7.082018901605271
lthumb 23.476673913529183 60.621251703650024
rfemur -10.643056328948 15.418913908859988 16.267648833467444
rtibia 29.609966480223115
rfoot -19.48402560531589 -12.27076164527341
rtoes -7.110374828839053
lfemur -24.83390245281101 -1.541100294995196 -10.119594755900275
ltibia 48.7345398663736
lfoot -5.384156146335229 0.7620412718132652
ltoes -8.088297694559888
105
root 0 0 0 -4.593440151385356 -18.31866285047975 3.7564518140291563
lowerback 6.759187394898571 1.238562372731535 -0.23309474416111886
upperback 2.727946735694663 1.6362468553032543 -1.2574646967878174
thorax -0.873618938600006 0.7874464771041206 -1.2985346698404858
lowerneck -3.9042893463012627 3.482803494505441 -3.398970749201375
upperneck 15.846123744483812 4.754708749425571 -0.5770715854270358
head 5.35086487778817 2.1821981388957905 0.755357659418876
rclavicle -5.297483723155366E-16 7.03958727109711E-16
rhumerus 20.89286782264676 18.55639802229413 -67.54045402379782
rradius 96.74874476383067
rwrist -13.932600066284682
rhand -38.905865909991945 -18.79651713585569
rfingers 7.125019999999963
rthumb -11.87027008439115 -48.34610891592848
lclavicle -3.133386600031425E-15 5.959757595182951E-16
lhumerus -31.224022393434872 -9.730658666594541 85.40721889311826
lradius 26.911150425396343
lwrist -31.335691560022063
lhand -1.9389265607790094 19.70930220512962
lfingers 7.082074903294881
lthumb 23.474642226750973 60.61779563008494
rfemur -10.722247166373656 15.397932549006711 16.23012210676828
rtibia 29.6742329664623
rfoot -19.473068974722402 -12.279269575787163
rtoes -7.127606989249497
lfemur -24.89305962796177 -1.495720178340293 -10.114507662529478
ltibia 48.84809499072181
lfoot -5.399807972059476 0.7450985927889571
ltoes -8.115423805797157
106
root 0 0 0 -4.564671618060112 -18.373404031903355 3.758849245788331
lowerback 6.7981811279045115 1.2450366435719618 -0.2248091424598393
upperback 2.741497546079101 1.6439358075484014 -1.2583886837140714
thorax -0.8811078948476816 0.7912050655208245 -1.3053619205473541
lowerneck -3.8948244382154273 3.4780848462108467 -3.397235443089088
upperneck 15.780652702102714 4.751281971444733 -0.5694347855135327
head 5.329428399959063 2.180092465760989 0.7578192892502482
rclavicle -5.54770354571268E-16 7.080177088318105E-16
rhumerus 21.009146663482575 18.279497625371736 -67.40520763493974
rradius 96.47882477932026
rwrist -13.718280604367617
rhand -38.86043577605152 -18.660876007599544
rfingers 7.125019999999964
rthumb -11.826606061816348 -48.21315402795028
lclavicle -3.1349200113182324E-15 5.9750916983061E-16
lhumerus -31.18719672847873 -9.740697333037215 85.39248267249458
lradius 26.972333751664188
lwrist -31.2804655349926
lhand -1.9558054170774923 19.724131159335084
lfingers 7.082138587995845
lthumb 23.458606931466033 60.61148469054059
rfemur -10.748432055270511 15.397282660509282 16.213839288967705
rtibia 29.68395436021956
rfoot -19.488771528169856 -12.289921256149286
rtoes -7.147219873553855
lfemur -24.94291757581234 -1.4587173505736097 -10.109698063808683
ltibia 48.941237957255225
lfoot -5.411602883186743 0.7313496083789364
ltoes -8.137266429639313
107
root 0 0 0 -4.524994077588385 -18.435110583348738 3.755066557049156
lowerback 6.846238839184837 1.2536543916014518 -0.20665264961042795
upperback 2.753624166624791 1.6551690351201296 -1.2570822711868224
thorax -0.8952714538357114 0.7966981642458904 -1.3157856575746352
lowerneck -3.903045472112372 3.47456447936471 -3.388009048404736
upperneck 15.691311092400348 4.751961457159982 -0.5721493189455282
head 5.30313675694699 2.1799053120053022 0.7557378117050737
rclavicle -5.973867312190479E-16 7.184200841744646E-16
rhumerus 21.241834432003206 17.816742718830472 -67.1686196149999
rradius 96.1133783441631
rwrist -13.41673505586336
rhand -38.821612938211 -18.469889223131727
rfingers 7.125019999999964
rthumb -11.789429882803082 -48.02596785835232
lclavicle -3.1235159014016692E-15 5.958897632239971E-16
lhumerus -31.138074985045876 -9.724428155690521 85.35956783828588
lradius 27.004111983796278
lwrist -31.232965812099728
lhand -1.9802384241580793 19.733588112641833
lfingers 7.082174440208538
lthumb 23.435003959158458 60.601435521997956
rfemur -10.605445518493676 15.45389407287823 16.26976888292612
rtibia 29.51981961537523
rfoot -19.557415100317204 -12.310574224326905
rtoes -7.146444545442566
lfemur -25.033653313127523 -1.4018888102196159 -10.101252467736117
ltibia 49.10626106607438
lfoot -5.405220751279292 0.6832187938965015
ltoes -8.174082420069482
108
root 0 0 0 -4.507140775929447 -18.458599753014674 3.7515963618897
lowerback 6.866556288685915 1.2584201146960001 -0.19994464126970413
upperback 2.759531755442774 1.6612432824920575 -1.2576835795900734
thorax -0.9003948125754428 0.7996822455794349 -1.3210275802026632
lowerneck -3.902396643301058 3.4697614557419425 -3.386520905553398
upperneck 15.652520157267475 4.747357472786479 -0.5672067661249258
head 5.291440315329999 2.1776226010962425 0.7568863671661576
rclavicle -6.223104943718904E-16 7.227611839433209E-16
rhumerus 21.414955730132256 17.49811694948563 -67.00172060402681
rradius 95.87704750318264
rwrist -13.217654024175228
rhand -38.801844541042215 -18.34554094669469
rfingers 7.125019999999964
rthumb -11.770859687871129 -47.904526265842904
lclavicle -3.1331453538895253E-15 5.993226934983112E-16
lhumerus -31.05667609200354 -9.713564402287092 85.31334975878364
lradius 27.086436790073584
lwrist -31.14541449014761
lhand -2.016911768816156 19.755082143424147
lfingers 7.082278760544051
lthumb 23.399941591991066 60.592069466402926
rfemur -10.682417981601313 15.409115594825828 16.247057755874998
rtibia 29.620173117515442
rfoot -19.516364774453603 -12.310929858902124
rtoes -7.133748855530273
lfemur -25.063686078499927 -1.3838818665580048 -10.096369396055714
ltibia 49.152928764753746
lfoot -5.411518577668144 0.6780932158241875
ltoes -8.187117337002958
